<mxfile host="app.diagrams.net" agent="Mozilla/5.0 (Macintosh; Intel Mac OS X 10_15_7) AppleWebKit/537.36 (KHTML, like Gecko) Chrome/131.0.0.0 Safari/537.36" version="25.0.3">
  <diagram name="PÃ¡gina-1" id="-i8A2FKhegXYf_vA5hkj">
    <mxGraphModel dx="714" dy="415" grid="1" gridSize="10" guides="1" tooltips="1" connect="1" arrows="1" fold="1" page="1" pageScale="1" pageWidth="827" pageHeight="1169" math="0" shadow="0">
      <root>
        <mxCell id="0" />
        <mxCell id="1" parent="0" />
        <mxCell id="x3Lsv5-kPZrnv_pdy9i5-5" value="" style="shape=image;verticalLabelPosition=bottom;labelBackgroundColor=default;verticalAlign=top;aspect=fixed;imageAspect=0;image=data:image/png,iVBORw0KGgoAAAANSUhEUgAAAMQAAADGCAYAAACNbi9gAAAWv2lDQ1BJQ0MgUHJvZmlsZQAAWIWVWAc41u/Xv7/PxmPvvffee++VvSmPx17x2KJBKSMVQkZmViEqKxSKSElUKhVJEYWUZL5f/d70///f63rf6z3XdX/vz3Oe8z33OOf+nnNuAFgBISwsGEEDQEhoJMnWWI/H2cWVBzsHKAAXQMNPVgIxIkzX2toCwPSn/3daew6gvX5Mck/X//z/fyVab58IIgCQNYy9vCOIITC+Cbc1YhgpEgDkNZjPHxMZtoefwJiBBE8Qxh/2sN8/eH0Pe/3GKPxvGXtbfRjzAIDDEwgkPwDwEjCfJ5roB+vBw2vA0IV6B4QCQOcJY62QkMPeALCUwjIisEwYjB/AWMXrX/T4/ZtOr32dBILfPv5nLb8JZxAQERZMiPt/bsf/TSHBUX/GEIYb3p9kYgv3dPCefQg6bL6PQ70OWP3BAd6/5X9j/ygThz+YGKHv+gdHBNuZ/sHeBAPzfT3BByz+YN8Ao32ZgEhT+z/YJ8LQ7g8mHbbdH9eXpK/7BxNIf+cQFeSwz/f3Md3XH+9v7/QHRwc4HtifW5Cd+V8Z/X0+Kcp2fy0+ocZ6f8c12t+HkIh/WXuA6f67kf72Jvv7QPg7f59Q3b86I5z35+btY2D4V8ZhXz4sUm9/rLBg6315n2DjfX5EtN3+u5Gwc/5913p/DwMJZtZ/MNAHh0Ew3EiAB1jAvwwAiPSJjdxbiP7hsDhSgJ9/JI8ufNp8eExDiVISPHIycgoA7J3df1xj1fb3mYSYRv7yvGRhl96GXXP4Ly9kC4CGkwBw3f/LE6qF/f8oAFeLiFGk6H94qL0HGpADasAAfzS4AD8QAZJADigBdaADDIEZsAL2wAUcBETgD0LgmceABHACpIB0cB5cBAWgBFSAGlAPmkEr6AQ9oB88BE/AM/AaTIFZsACWwRrYhCAIC1FC9BArxA0JQuKQHKQCaUGGkAVkC7lAnpAfFApFQQlQMpQOZUEFUBlUCzVB7VAPNAiNQi+haWge+gZtIJAIPIIBwYkQQkgjVBC6CHOEPcID4YcIR8QjTiIyEfmIcsQ1RAuiB/EQ8QwxhVhA/EACJAWSCcmLlESqIPWRVkhXpC+ShDyKTEPmIsuRDcgO5AByDDmFXET+QmFQ9CgelCRKHWWCckARUeGoo6gMVAGqBtWCuocaQ02jllE7aEo0B1ocrYY2RTuj/dAx6BR0LroKfQt9H/0MPYtew2AwTBhhjDLGBOOCCcQcwWRgijGNmLuYUcwM5gcWi2XFimM1sVZYAjYSm4K9hL2GvYN9ip3FruMocNw4OZwRzhUXikvC5eLqcN24p7hPuE0yGjJBMjUyKzJvsjiyc2SVZB1kI2SzZJvktOTC5Jrk9uSB5CfI88kbyO+TT5KvUlBQ8FGoUthQBFAcp8inuE7xgGKa4heeDi+G18e746Pwmfhq/F38S/wqJSWlEKUOpStlJGUmZS1lH+VbynUqeiopKlMqb6pjVIVULVRPqb5Sk1ELUutSH6SOp86lvkE9Qr1IQ0YjRKNPQ6A5SlNI007zguYHLT2tLK0VbQhtBm0d7SDtHB2WTojOkM6b7iRdBV0f3Qw9kp6fXp+eSJ9MX0l/n36WAcMgzGDKEMiQzlDP8JhhmZGOUYHRkTGWsZCxi3GKCckkxGTKFMx0jqmZ6TnTBjMnsy6zD3MqcwPzU+afLOwsOiw+LGksjSzPWDZYeVgNWYNYL7C2sr5hQ7GJsdmwxbBdZrvPtsjOwK7OTmRPY29mf8WB4BDjsOU4wlHBMczxg5OL05gzjPMSZx/nIhcTlw5XIFcOVzfXPDc9txZ3AHcO9x3uzzyMPLo8wTz5PPd4lnk5eE14o3jLeB/zbvIJ8znwJfE18r3hJ+dX4fflz+Hv5V8W4BawFEgQuCrwSpBMUEXQXzBPcEDwp5CwkJPQaaFWoTlhFmFT4Xjhq8KTIpQi2iLhIuUi46IYURXRINFi0SdiCDFFMX+xQrERcYS4kniAeLH4qARaQlUiVKJc4oUkXlJXMlryquS0FJOUhVSSVKvUV2kBaVfpC9ID0jsyijLBMpUyr2XpZM1kk2Q7ZL/JickR5QrlxuUp5Y3kj8m3ya8oiCv4KFxWmFCkV7RUPK3Yq7itpKxEUmpQmlcWUPZULlJ+ocKgYq2SofJAFa2qp3pMtVP1l5qSWqRas9qSuqR6kHqd+pyGsIaPRqXGjCafJkGzTHNKi0fLU6tUa0qbV5ugXa79Xodfx1unSueTrqhuoO413a96MnokvVt6P/XV9BP17xogDYwN0gweG9IZOhgWGL414jPyM7pqtGysaHzE+K4J2sTc5ILJC1NOU6JpremymbJZotk9c7y5nXmB+XsLMQuSRYclwtLMMtty8oDggdADrVbAytQq2+qNtbB1uPVtG4yNtU2hzUdbWdsE2wE7ertDdnV2a/Z69ufsXzuIOEQ59DpSO7o71jr+dDJwynKacpZ2TnR+6MLmEuDS5op1dXStcv3hZuh20W3WXdE9xf25h7BHrMfgQbaDwQe7DlEfIhy64Yn2dPKs89wiWBHKCT+8TL2KvJaJ+sQ84oK3jneO97yPpk+WzydfTd8s3zk/Tb9sv3l/bf9c/8UA/YCCgJVAk8CSwJ9BVkHVQbvBTsGNIbgQz5D2ULrQoNB7h7kOxx4eDRMPSwmbClcLvxi+TDInVUVAER4RbZEMcJI0HCUSdSpqOlorujB6PcYx5kYsbWxo7HCcWFxq3Kd4o/grR1BHiEd6E3gTTiRMJ+omlh2Fjnod7T3Gf+zksdnjxsdrTpCfCDrxKEkmKSvpe7JTcsdJzpPHT86cMj51NYUqhZTy4rT66ZIzqDMBZx6nyqdeSt1J804bSpdJz03fyiBmDJ2VPZt/djfTN/PxOaVzl89jzoeef35B+0JNFm1WfNZMtmV2Sw5PTlrO94uHLg7mKuSW5JHnReVN5Vvkt10SuHT+0laBf8GzQr3CxiKOotSin8XexU8v61xuKOEsSS/ZKA0onSgzLmspFyrPrcBURFd8rHSsHLiicqW2iq0qvWq7OrR6qsa25l6tcm1tHUfduauIq1FX56+5X3tSb1Df1iDZUNbI1Jh+HVyPuv65ybPpebN5c+8NlRsNNwVvFt2iv5XWArXEtSy3+rdOtbm0jbabtfd2qHfcui11u7qTt7Owi7HrXDd598nu3Tvxd37cDbu72OPXM9N7qPd1n3Pf+D2be4/vm99/0G/U3zegO3DngeaDzkG1wfYhlaHWh0oPW4YVh289Unx067HS45YR5ZG2J6pPOkY1Rrufaj/tGTMY6x83HX/47MCz0ecOzydeuL+YmvCemHsZ/HLlVfSrzdfHJ9GTaW9o3uS+5Xhb/k70XeOU0lTXtMH08Hu7969niDMLHyI+bM2e/Ej5MfcT96faObm5znmj+Sef3T7PLoQtbC6mfKH9UvRV5OvNJZ2l4WXn5dkV0srut4xV1tXq7wrfe39Y/3i7FrK2+TNtnXW95pfKr4ENp41PmzFb2K38bdHtjh3zncndkN3dMAKJ8DsVQMIN4esLwLdqAChdAKCH83Jyt39y6/8mJJx8IODeEZKCFhAnkXLIOVQpmgDHumVsGy6DzI9cm4IBT0NJR0VDzUDDQctLJ06vxmDJ6MUUy5zN0sA6zDbH/oNjmwvHzcIjyCvDp8VvJeApGCF0RrhYpFn0kThagiDZLc0jc0R2XF5MIUaxVxmjoq8aqVahPqyxpEWuTavDqMuix6rPZsBsyGBEbYwz3jX5brpg9s58zKLfsvVAjVWB9VmbZNt4u0j7cIcIxxino85nXHJcy93q3Rs86g5WHarwLCOUeJUSy7wrfWp9G/3a/fsCRgLfBq2EYELZDouHqYWbkBwiDkb6RAVHh8dEx8bFJcYfP1Kc0JE4dvTzsZ0TVEnsyUInpU4ppqid1jqjl2qcZpNOyig6O5i5fl70gnvW2ezunMVcpjz1fPdLsQXnCyuKWoqHLr8pWSlDlTNViFSqXjGtcq72q4mqTarLvFp47Up9U8OdxpHrU02rNzA32W/JtBi2urSFtB/vyLpd1nm2K7Lb5Y7mXe4e0PO+t6+v6l76fVK/x4DZA7VBrsGFocqHTsOY4cZH9o/WHxeMaI/MPskeNRzdenp7LGnc6hn3s6/Pu16kTTi85H4596r+dfik/OT3N81vw97Jvdueejxd8j5sRucD7Yf3s00fT3yynuOe+zJ/+3Pqgv0i6+LLL3lfXZf4l34tf1pZWRX9fm5NfJ16w2ZrcXf3t/35oesIC8QyMhdlhPqBrsZ4YQWwc7gGskhyXQpBPC1+g3KB6jX1E5r7tN10rfRtDJ2MXUw9zIMso6wDbF3sLRxNnFe5arireC7zZvOd568QGBD8KswkoiMaLFYg/kBiTUpI2k7mqGyd3Kj8miKLkoqylQpBNVCNqO6iYampq6WgLajDoIvQXdJ7rd9vcN2wwOikcbCJramSGbs5MP9k8djy1oESq1TraBuira2dnr2cg4AjkxPOadP5i8s711G3e+6tsDeUHMrxTCMc94omhnqH+oT6hvgF+wcFBAb6B/kEE0IOhroedgqzC7ciWUa4RPrCKXNiTEpsZlxO/KUjRQnFiSVHS4+VHi89UZHUkvz45FwK+jQf7A/EtOT0ioyes28zf56nusCfpZxtkeN1MTb3XF5lfselkYKZwp/FZJfZSsRL1cqMyx0r/CuPXsmpqq9+UPOhDlzlvKZe79RAasy4fqWps/nJjTc352/9aIXaKNtZOwRvy3Sqdul1m92xvuvQ49rr1md/z/S+Rr/kAPsD7IPlwedD7Q8LhxMeuT9WH2EbWX/yfPTm0+yxyHHnZzrPJV9wT7C8ZH7F9VpsUuON3Vuvd65TxtMK73lnqGZ2Pnydnf744tPI3MP5wc+DC48Wx758XoKWmVckvhmsen5P/tG0trCu8at0k2Wrbsfit/3FwT3IHJqAPaAfaYp8hvJEfUenYHgxrVg77CqumsyDnJ78CUUm3paSh3KZaoj6Gk0O7Qm6SPogBg9GTSYWplXYE0pZo9nM2XnZf3I84qzkSuR24pHnpeH9xNfOf0bAXpBTcEqoXJgoIijyUbRW7LC4igRKYlSyQIogLSK9KNMkGy2nJrcj36NwUtFYCac0pJyuYqlKptqvlqyuo76l0aYZqSWj9Vn7io6nLpvuuF6mvqn+jsENw0AjbqMx49Mm6iZfTEvMbMwh82YLL0tay/sHEq3UrH5a37QhwfnDkl2DfaiDpMMXx3qnEGcJ5zmXclcXNwa3UffzHnYHWQ++P9TgeYRg7sXh9ZXY453l4+7L77vgd8M/IcAwkCZwMqguOD7EMpQv9Nfhp2HV4WEkedJaRHtkYpR+ND56IqY6NiHOKV75CHsCMuFr4sujfcfqj+edOJEUlOx4UveUVArnacrTO2dWUj+mvUjvzig7m5zpc87kvOQF+gvbWZ+zJ3OeXnyU+zBvJH/80kTBZOG7og/Fc5eXStbKQDlFBWul6BWNKptq/5rjtfl1168OXJuq/9VIf12yybTZ70bKzapbD1oW22jbtTtSbo91cXX73qm/u9qr3nfq3mi/wEDCg9dDeg+bHok9LnmCGiU87RmXe9bxgvSS+PrKW/fp2tmxBcIq/579/7lj2SOMEgAXueAKlQYAu4sAnIUDhPASAMzkAFhTAmCvChBmmgDBEA8gQ679+AHBhSc5XBNzwNWmEjACTiAQHAc5oBbcBRNgBcJDInBtSISSoAroHvQJQYGQQTghkhCNiDdIPFITGYasRL5E0cA12glUJ2odrYSOQF9Fv8MwYswxSZjbcI0liw3FNmCX4FoqFneXDE/mSlZHtgNXSY0U9BRxFNN4C3w7pRhlMVzpZMC1zRm4msmkZaQtoZOk66S3pH/HQGLEMBYwSTH1MjsxL7IksbKyNrHZsm2wV3JYc2xz1nN5cFNz9/JE84rzTvHl8h8QwAh0CUYKSQrNC9eKBIvKiW6KDYoXSIRKGkpxS21Jv5bpks2Q85CXU6BQmFMcVGpULlBJVU1QI6mHaARoBmgFavvqWOoq6LHpA/2PcIbcYlRmnGly1DTCLNg8yOKwZfyBNKsy63abMdsle0oHSUcbpxjnUpdh1013SQ+vgwWHnhHoveyI+d5vfPn8/PzrA1aD1IKTQ4YPs4T5hrdGkEcSom7HcMZ2xHsk4BLbj4WdEE+aP1mdQjzDkTqWfvqsyjnZC6HZD3NN82cKUy+LljZV8F6Jq26pfX+NocHyembzy1vSrVkdUGfCHVRP7j1Ev8eDzoc8j06PfH/qO/72hdvLN5M+b79N5304+Elyfm4x4mv38tC3vO+yP2rWdtelftlt2GxabElto7Ynds7vGv/+fkAADfCAEfACaaANbIAPSABZsPV7wSRYhxghBcgeiobyoU7oPYIMIYtwQ6QjbiO+IHmQjsgM5H0UhNJBHUHdRC2ihdAEdDH6FYYF44TJx7zCcmK9sLXYFZw67gzuOZkwWTzZKLk4eSr5MoUbxSBeFX+Nko+yiIqFKp+ajbqURoTmBq0u7ThdID2CvphBlWGCMZaJjamL2YsFx3Kd1ZUNzXaDncjByDHEmcSlzvWT+xZPFK8S7wbfHf7TAtaCjIKTQlXCJBFdUTrRj2Jd4nkSEZK2UvLSzNLbMjOy3XJF8okKBEVTJQVlfhVGVQo1tDqkATQRWlhtSh20zobust6s/muDp4aDRr3GXSYdph1mXeb3LUYtpw/8sMbb8Nuq2znAWcx5x+tO484brvxuVu7HPJoPznnyEQ55FRFf+ND6Wvid9u8N2IatHRvSFroRph1+hjQeKRAVEz0SqxBXdASTQEqcPmZ7vD9JM7ntlHJK+xnt1KF054zPmafPK134nF11MSBP8RJ5wVzRyOWu0ubya5VXq+prWup6rj1qeH79ZfOzmw9arred7fDsFO9avtPQ499nfN9tIHww7eGVR3dGXo6ujKOfM07wvZKYVHirOqX6nvMDenbl09T844WOLyVLsSuGq4jvtWtaP/t/6WzUblFsE3du/LY/AuAAA+CHz74F8AXJoATcAVMQCj71B6BIqBDqgxYRTAhdRASiFjGN5ES6IYuR0yhhVBjqNhqHdkLXoHcwLph2LBc2FfsLF4x7D5/vMXJL8kEKS4pxvCd+iTKJipXqJrUd9RpNMa0J7SZdE30wgzjDV8YWpmRmOxZRVgTrO7YB9maOCs5LXBe58+A85Bps1QmBBcFfwhQiPKLKYnbi4RLZku1SMzJ0suZyF+THFZmUHJQvqDxUQ6lrasRo3tBa0dHXLdT7aeBo2GrManLEdNJcw6LA8peVk/ULW1+7DYcLTkLOba6GbkMexge7PaUJRURy70Sf734h/p8DA4I+hwSHfg0LD/8eERO5EZ0YyxrXdyQ8ke/os+Onk5STZ06lnRY/M5B2KP3b2aRzLOebsiyy5y+eyRPOHyjwLUIXl5dol74qj6ykulJdrVvzti7xGlf93UbvJrLm6zcdb223Vrabd3zrvNStc+dTz7k+zns5/dQDZwephy4Ocz2qGZF70v3UZOzpM8fnExOOL0deG0zefMv77tTU4nvXmYnZQx/n5kLn5xZsFxu/LC/xLGus6H9TWuVZ/fK94wdpjW2t9yfh58f14PWVX5G/Xm3obFRtUm5GbPZvUW85bZVuzW3Lbsdt926v7HDumO5E7ZTuDO+s7wrsWu8e2a3eHduz/z/38r/jBxw3ilb30BDvpYT/vBP/587+X2qT/+zB7+iyR3vRZY/2Ig34LzZidq6s6ynXAAAAVmVYSWZNTQAqAAAACAABh2kABAAAAAEAAAAaAAAAAAADkoYABwAAABIAAABEoAIABAAAAAEAAADEoAMABAAAAAEAAADGAAAAAEFTQ0lJAAAAU2NyZWVuc2hvdORWp5gAAAHWaVRYdFhNTDpjb20uYWRvYmUueG1wAAAAAAA8eDp4bXBtZXRhIHhtbG5zOng9ImFkb2JlOm5zOm1ldGEvIiB4OnhtcHRrPSJYTVAgQ29yZSA2LjAuMCI+CiAgIDxyZGY6UkRGIHhtbG5zOnJkZj0iaHR0cDovL3d3dy53My5vcmcvMTk5OS8wMi8yMi1yZGYtc3ludGF4LW5zIyI+CiAgICAgIDxyZGY6RGVzY3JpcHRpb24gcmRmOmFib3V0PSIiCiAgICAgICAgICAgIHhtbG5zOmV4aWY9Imh0dHA6Ly9ucy5hZG9iZS5jb20vZXhpZi8xLjAvIj4KICAgICAgICAgPGV4aWY6UGl4ZWxZRGltZW5zaW9uPjE5ODwvZXhpZjpQaXhlbFlEaW1lbnNpb24+CiAgICAgICAgIDxleGlmOlBpeGVsWERpbWVuc2lvbj4xOTY8L2V4aWY6UGl4ZWxYRGltZW5zaW9uPgogICAgICAgICA8ZXhpZjpVc2VyQ29tbWVudD5TY3JlZW5zaG90PC9leGlmOlVzZXJDb21tZW50PgogICAgICA8L3JkZjpEZXNjcmlwdGlvbj4KICAgPC9yZGY6UkRGPgo8L3g6eG1wbWV0YT4KSQRavgAAPjdJREFUeAHtnQeYJUW1+OtO3Jmd3dmcw2wCliCSTcAKBhAUQSWpH/5RBAFJShDUh4qIKDyQIEl4PKIE/fzISlB4iCAgmc07OzM7u7NhNk2O//Ormeqt7tt9p+/s7N7bfe/55k6n6uruqjp18qlER2dXr8pDvgXyLaBboCDfDvkWyLfAthYo2rYb/72mrVvVpk0bVUtLi+rt6dEfDHksKixUFSNGqNFjxqjS0mHxb4j8Fwa2QCIXWKbe3l61qq5ObWzcoEaPHq0mT5mihg3bNvC3CqLUrFypurq61Oy5c+VaWWCD5S/EuwVijxA9Qglqa2Swd3aqqdOmqRFCCYJgzZo1avXq1Wr69BmqctSooGL58zFugVizTFCG6uXLdPftNn/+gN04adIkVVxcrKnJyMqRKpHIi1gDNlrMCsS6x9evW6va29vVjJkzQ3fb2LFj1ciRI9WK5csV1CUPudUCsUUIBvO6tWvVvHnzVFlZejLBRKEUzU1NCiE8D7nVArFECFilldUrtBxQVl6edo+CQFCKzaKRykNutUAsEcLM7uPHjx90b06fMUM1CZXIQ261QCwRAlsDWqLhw4cPujcLCgoU1KVxw4ZB15G/MXotEEuE2Lpli5qZhiAd1G0jKioUgnkecqcFYocQG9av10a3oqLt1yiXC4VAS9XR0ZE7IyLHvzRWCIEwvbZhjWZ1hqJfjUDe1tY6FNXl64hAC2z/NJpFH9na2qrdL7ZHdrA/ByNdaWmpam9rU2pkpX0pvz9AC/R0d6stwro2NzepNmk/PAU0JBKagg8XdrSycpQ2hA5Q1U69HCuEaGluVoXiqFdSUjJkjTiysjLPMqXZmps2blR1tTX6rjHiMDlNXGYqBAGAbkGU9cLWrq6vV+vFTjR7zlxVIpNOtkCsEKJdKMTYceMUrNNQAb5Pa6Xj8jBwC2DIXLu2QQ/6KeJAifewd3Jiwpo4caIaJ/3U0NCglixepKZlke9YrBCipbVFTR8/Q3yQEgP3XsgSsF9dHf3kPuQ9uVgMr4A1q+sVth8QwVCEoLYAMUCaMvE6rq2tFY60ckj7Lei5A52PjVCN63aPUAY0QjT2UAFyRHdP91BVF7t6uru7xHW+WrvWT5CZf4T4gaGdCwsgD1S4Ttzvh5Kyh32+t1xsEKKpaasW1hDgMKoNJUBxenvzjn7eNu0UQXnxwoVakQGrisvLKDGIptv+uMls2rwpK2S1oR053hbbicdbNm92KEOoDumSAb6lK9QbFopNo72tPVTZXCnUJvJazYoVmhoww0OVK4XtGQygcQJaheXNNMQCISC1WKcNIgzIMt26UjUXP6iaKh9Q6nvvDNgHxYIQHZ1545xpKAYuwnBJaYm2+dDeyA6DNYZyPxGMnVkgq8UCISDduHvTIbA3BjFMBzrbTqEKp72tms94SfUqqEOvarrlLaV+vdQp4rdDfR3teYSgbYhHXyVCsI4/l0FM2xCWu71A32VD/Ek8EKLftQIBOCV1uLtWNd3xtqCBWx7ovGRJyv4skBkM4THXATZp2ZLFejZHncrkA2XwqlYH007UJX8Zh1ggBJqlPsG3NyXZ7jztQ98Gb1frlVoYHAzELIgWK5ehQ3y66upqtdBsDGnIDINlk7xtic9YQcHQaQe99Yc9jg1CwINiBQ3soAdXqXYVZGATQ95vlge2WWGOIwQsKTKDdmWRdgZAhqFykYFVYlKj/kxDLBCiWzoMTQXCtS9CtHarjpNeT9nWHXeuCL6eDbQ8+O126BUG6ypxw6B9TSgudoaBDG/pvBSqcqB4CF1u0nm+XTYWCAE7gxMe4IsQ/9ygOtRm+7uT9jvUFqUa/S3SBYIQvd1uuSOpghieYIJZSbIF2RpjG+2LrWEoAdkEsHNlDWX96dQVC4SApBvwRYin15nLqbcrmgOv94gonmvQIHmqOruE+vZHHsLSIEQjrw0lNIlTJq4bgdrBoXzYAHXFAiG6RANkhF4/LVP3b0VoDgOr+ki3t2hCZIhsUAl632tHHmPX0ZkOxbXCIMBgrNBh3hEv5fETJoQpusPLxAIhTIeZrbfVOlWj95T/cb0/QlA4G/xs/F966M+S2tNkLeG7aVfcuIdCvep9Wx3DIsqQ8vLBx79769ye48h7uzJzG1Jrtq4GaWgXE1ywStVVdn3e+AYCrJY8uOSmMpMAArQRqF3tNQQH5NytqAhOLzoEj0irishTCKLZDCL4UogH68I3SIBQbQZG+IqiWRK2c8WypaLtKXaQAUE3tEbpWVFrH/u66ko8ozoSjyl1qngBpACoA1F1eMhmC0SeQhijHA3qJz/03rImfFsHIISMDt+6w1ccjZLrJLinVSYYAnigvAjReKIOCJvEdWbeK6plfbWraMddm1TF7XtLx/gL4Zs2bdJawVQJqF0V7oSDyFMInO6M/sePQrQvXB2+GZtzN+6BXFYI0gYZaMsBvVfxDbt9pWof/VQSMtDoCSWW5wBk4Pqmxo2SkX26I7RzLtMQeQpB8Dp2AsCwTk6jbhbtk0rDpXijv3sGeng/6uM8J+I7OOzVSoAO1MBo0xCijW0n8PO+/bZquufdwMslakzgtfXrRBVekNDq1sBCGbgQeYTABuFHGXRb1qWBDHJDb2uPzGrJwGpDgc9ILh6pMyDA6vpVapR4rGIpRl7C7pDSSLa8WfXs+bpqaV2Z8luLz5rqe71L3DRWrVqlBXffAhk8GXmEgEIU9fvAJFGIALtCYHt3GObLXYJBklS3u0hkj8iOAYWFGvCdUMKUrFJ3r+qc86L4hYUwdp4x07dd1jc26meNHh1MQXxv3AknIy9DoBkxgzVpFl+Xnhq1d4u/ewYsU3Fh5OeOpOFE3lpsDuX9lmiQgWwYSe1o7nxto+ooeiIUMlScKsL0nsnaIxwwN8hzZ8ysUrjVZxtEHiFo4ECESNeuEEQhhK0oLI4XQsAqNaxZraZOneogANoeX9cXRm1Hj2o/6EXxCRvYyFmsxNfpD4IQPlAndgcMfNmkarVfMxYIYWY0s3U+MF2EcG507zB4CmNEIZC7CPRBVkBtDeC8Zxz43F8vR//ZpNpLH1OdAzhImvtKr93D7Lq2UCNy75KQIFsh0gjBQIXvNYhgtk5ji5ZpKIDnBM6cQ/GAnVwHOZRgNQ2rhL2BMNCk9uO9RKzq2Pfl0MhQosRucc5s3y9aK4nJWKZgxIhkVsr3hgycjDRCgAw2JHVo09AgRLemENnH79rfHnZ/s6R7adq6RZFDCUQHWFPPF2okV26BWJ1VuDUyilWFKll1uK/tAXmlTaLisDtkM0QaIUzDJiGCubB5aAxtqF2NJstUHcUtgTg11dU62AfZCwAZglSsPYe9odpUQ+hPLf3lnkpN2bb+t7mR51bLc8ePn5D19pxIIwQD1YYkxGgZGoRg8ETdMAc1bZAEw8QdGK9VVK2+bhPt0m4nvalali23mzflfpmaodS5/qzSGln7e6SwSVFY+zvSCGF6yM+Ypq91ulkqUz5omxjh3xxGPx90XxTO46dEsA+Cs2E1A1mla5arpgffC/1ZxapSFfYuUGp4siaOBHJbt2xVM2bNcrSBoSvOQEH/EZCBFxnMI7EPaOh33RhMHa57SgNRy1UsagdbtmwWFesaVSFqVRsZDKVwfc9L61XbZam9VF3l5aD0nn29p/QxLiHLJQR1griSJ1Fv3zsyfzIZpTP/TkP3BuKKkQ4khiXPD1rwHCqES+dlhrBsQ/1qNXnyZB0bTbWBrFJ1i2o+5OmkvFWpXqXimN2V+sZ03yKrhVWqGF6hxoTxmPWtYeefTB4BO/8ddtwTy9L8PB8KgZ4+qvIDyEzkW5EYFW3m0VdukALds15LCxnKlPgqPeJPHUCGTsl2OL2qasf17w6oOc0RswPeIJuqLEpmmUjQVZQFCbQG00wsPA8PjyBtWCWMcb5erBe8ryR9cVqPKXxrf0lzkjyENsszWSEIVsl4EaRVcQYLx4plMp3utGdFcmc51/x2fCgKuvNEYZr1+NW9k89heFsnLtaEghoVK8ZFX8e9h+tV03VvhH7DhCpWwx84RKm9k7N9YwWvF0/WKZOnaJkldKVZUjB6PW01nImDMKeSEKI4zc/zoRCkWIyi2waLmJR6En/BKvkJtx3Hv2maMNR2+Mm7KnVisms3LNriRYtUqYSdjpUsGn7PCvWADBZKc8Rk8E1TPNoggrG8OkUr07Qu+1AIYraLitKsx3mBzOwQ/dYqGp5hsoCJAdwzkhIFdIi94aB/hnLYM/WUqvFKXSOCtA8Q44CsMmHiJJ+r0TgVc5Ypzc8rSx74CNXloimJErC6pw4F7VdLM1P7unX/b51qem1p6E8rUsNVcdvnRE2V3E6NEuOwcUOj2nX+/Kx06w77kdGmEP3q0EAKUZHccSkbxqd4H8vkcyFlRZm7uH6dZL6QdnFsNPIqUIYk4ba5S3WcFhz+6fcFw24XIdoHGTZLsoCV4pqBK3k2xjj4fUvQuUgjhOlkgxBGeHQ+tjLNbNLl7oFPfdRdGBGWCY0Y2h1v2hjvsW6fw/6dFqtU8fW9lPrOTKdpzQ7tU1NToybLiqIjh2DhFFNvprZp8hSZes3Uz9U+TRJ9lSRDjE4TIYrdalc0NUBRRGIhNmxYr5HBTBS8O8iA/OCCR0Sr9NoS16lUB+VKDG//u09SEajnsmXLRJs0UmIcRLaIAcSCQhhtRhKFGFuSXhd5tFLd/QgRBcMcMzWsi1nAkA8HMfzUrN1f+yCNdpElyhYdIJUl30LWPbKiTxFWKS4QeQrBYDVWWMPiGARR6VIIj+tGV7+LdLYjBMhQL+u+eQ1uvhFw1y0TA9zqUOO3UJWqsqcWKLWLW6kAJcbWwLp7s+fNS5ZPQtWenYV88D47XzTorTA2MSAMmJBIfTwuTQoheYJscChElssQqIYbNzY6EXDmG5IQQtLHNJ3/slze1l6mrN+27PsSCnrExKRL6yUMdK1osqZMmxarSEI+NPoIAX9sIQR8rQMTSp3dUDteGUIoBGxHIpHdzbR540bNKjmUUT6WoJ8k2eGyRaGagULlappSPxcDnAdwBQEZqmbN1kvyei5H/jC7ezpE8xYXu6mACyHGgRDuWT9llV4ZQhCiROq3B1rK+zN0cZOEhXpjG5KWypVlxVofXBzqDcmaUdBzmFKj3MJ4s6zjsHTpUp0kIFuzZoT6wBSFIo8QpbJ4uK1zh2VyWCj5OoJXQoPHdQOZpFjqz2YgJSThrbaGDepga5qU5GDtKX9RyUp7IT5Fkpb9SYRozzxCQrhaUa+OF23SmDEhEiCHeFI2Fok8QgwbVqZ6+oVf08C2tql4XBrroZW4m4N6fYNozIMyvOX91qyuT3rHJBeNpxskw21tqLet+Ikgw7GTXWVBtoULF+pUl5MwvgkbGVeI/JfhSNYhs5fdScZ+QKcVnDT4dIkgVjann9kskXCwc7Z2iXbwJg3oOSuczaF8ZJXIDbsljXUMb1igJ4kHa9wh+gghgfKatbGMTzaFUAengRD9riCm05kZsxkhSF8/ThZBtAFZwp4c1JJm1VK70i4SuF/w7+Rgn3qxfJNgbO68XZIoUWBFEb4QeYSg7WF3bVuBTSHUx0aH7x6PHQLEKhS1bjYC74ZHq/3d7JsVQ/U7t4i/0i5/l93UataEKlIVDx6eZG9APiEWO9vWcNDftoP+xQIh0ATZQqULIaaXCcK4tSVh2xJhvahocPeGfcZgy+HEB7tof3eS7PDnNaGSjA0/fI5SJ7itzWjryMM6a84c/1Q1g33xLL8vHgghgTBm8W/a24UQclwkWvXBAEJrNsZCQB2Yvb12Bq/s0P2NgV27ddvc7M7Finp1kQjR4ydMFIrjtlIPph2jdE8sEKJIEAI+10AyQgw3l9Laor7NRgrR3NSkKYONAMg6tnCtFjaFipEe9moyq4QQjU8U6S5zDWKBECViK2BFS9uAZhvoCvYPSSE8rQE7YvPo2TI4tkpuVhIH2OwSi6o7IJn3Oue/5BwG7Qz/rFiiD9wmYzGRLF2yRCsSps+YGXRbrM97hkA0v7W0dJg2xtm2JBshEh8JSSGGFboaILUo6iq6Uw+gEKwBZwyQsE4u6vDU2hCLmiRU4g8fcb33GhGgm6TuXBKiXQ0gBzFBiD5rcme/uzYfSYJdB+aHRAjnhv4dy0fKeylTxy0tzSohtgYb4W3Wiffq/VnqnKxaq/THw5QShYMBMnTgPj5H1Kte2cSUyYVtLBCCrBhoWOxBQjoUh6WYN0jB0GOXyIYBwRoLZam0S1u7Vctbqe0O5XsJO3T8Nq0SeZRwy5g4aXKSUS8bvnlnvkMsEIIGG1U5SnmzgTvC9byQFKJNslBYkMgyngkkxxhnGwthlZwZXTJ39sx+WawOfZF+1qc4u1CHxJ3bsmbg+0WgD1Zo5JJch9ggxAgRKh2K0N+rDkLMDYkQnlSwCU98RKYHS4uoQwHsDwZcwvRrjb4LqJuybIdfdaBS+/cJ0qhvUa+WlQ8XFWs08yjZ3zYU+7FBCGZKVvqxwUEIcdobptJXIdpetHa9mdrHPoBrBgMZgDLY1EJduyLlqw1T4rR30VynDIY3LPFk98tDXwvEBiH4HDxTbT8eByHkWtHZ6TumSWhQXytlyf82cdVgwUJDCb2W6faHU8sORQ/v4bh1Y9hDdpgrIaAOy5Ul35nJ14gVQjBA8O8xYCOEOjE9hNCzcBbhA+/DgicGGfhGl3bpxx/KwohN5tOTtsP3Fsrw5T5KsEm0SbUSg01ygGyPBkz6kB18IlYIQepGZj0DLoT45FiZ77PTUc+8b6otKlG+z6iTXcJ0o6DCL18PvL1YSU7Xtz7hZOruE6InS0YOy5gXeHduXYgVQpRJsBDGKmOwYmsnHSiSgRFF4Ds2rBffJcvz1hUyehesUrBKrPQXwioJQGWWLF6sEWucLICYh+QWiBVClIhgjRxBFgoDZkbluDgRsPysKezZii3XcyYzh6hb+Q6zEio8vx3J1/3DYNmBfKxGkMb4hiV6cg4E+gy2p2KFEDQCGeSMFoZjGyEKTkiPQgitoYqMQ2trn1xkhF+X7PDGJlk6d7XvOxaqEjXsdXHeEy0bvl6kj6maPUeHgvrekD8ZD9cNux9Zz4wZ1YDLYr1/ehTC1JHpLa7tBP4YVtBGiM79XxG0daubzfsOO3yWUvuNclilkSMrk/K+mrL5bV8LxI5CoHYl/tf2fHUQZJ9oWmKZ3XHmQ0ngYpdkxdB2tc53LEsCSpW4ui+vUoO4e9Au3nBT3xtz/GTsEIL+JGOdgwRy7LBQe0UTIWD7jHXaJUzfWhs4fIf/WFLX79tnvV9HYjFYJSvuPPDGHL8QS4QoE4TYKAt4GHCQY3yJcNXhkg5AYbLBUo3DYqHM7lAJYjMcdqm7V7XdV2M+0bXVq/xcvqu2WZCdGx8ll3u4q3T+wG6BWCIEYY8YsAzPbdsjSs6YYX9/4L5t8Q4stBMukDoS6sA3OMjAc++qERe+bTYX+1WKfz9fsi4k1BZxBMQZMC6p6u1v3FH70bVUpWgRWAOEUFgNrNcOheCe7whC3PKW/92S7jEdYJCySAn1d3Z2yK9L2LMuPXhJE9/d092HmFIpyIkSF8rDr0DyxbK6abG4rjPzF4iNgfcuLpGfJE1gRgcpt4hBrrSsz5nPmeW3dKn20/wNcZo69C+kjpoVe4PXxSOdb6Qs797W1qqaJEyXNtXt2SPfI+9fyruWl2kfK29a0XSfkw3lY4kQDDgC5PXyUtLKyBB6QMp5tC7SjaKXsZIip9ETDIhNkmkbizjIYIDZm4HHD3sIgxfHO34MbN4J4D14H34MLAyH1IkmiXWlbUMislCLqFzLK8SWIOBQiMfWiJtGn+ervtD/D0t88ZrDZJWUQm1vwB5DUuLthbraGvnmjfqbxooWr1z8qUBe2DkoUIMs0l4vjoKsIhR1g18sEYIBUCFL0NbXr1IjZDDCPhlqwbUSSebbphrYTQ0yeHG5bm5uUi3iI0UdRTKbI6OMlwRhDFAGPoMjbOw1iGEQxZnxrbcAUUAKBjPPM4hGWQepbvKXHco/O0epiaWaQlWvWKFGb2cOVox49XW1+h3m7bKLpro2Kwny436OTxSuJQ0ivHPPlClT9aRgfVZkdmOLEAyeclw5+l3CEUoN61D0BRGsnxwYIUCkZUuX6AFBBgoyaocd+IMdAdRvKI1vHWIrbHulzvdS4uq+NJQ474FUqGoHC3x77cpqBUWYKutApALeGftPpSAH61TXCRLNnjM31S1Zey2WQrVp7XJJpYJ1FuRgtnXg0ACntha3DMFAmL/77vrHsrY7Ghmc90u1I5xX2YuHqYpz93XFeFSctY9SH+1TK2+Qb54ss7Rx9UhVnd81qBQTAbP/QMhg30/77LpbH1KuFuoMexg1iC2FoCMqRlTI0k9dfVRCkAIhWAfUHBCAEJ7eAwnSgZUrV6r33ntPLZJZcoWwLBjEEGxht0y8NywQtgSozRThuWfOnKl2k0H0kY98RB+Het7B8l7yK7puT1Uh+Zd6z3lfqRtllVABNEt85/YY4dBsIdPMk1gJL+A2/uijjyoWad9dJouTTjpJU1BTDpZqkgQcLZN1JEaPHuNaPN6UyeZtrBGipETWSBN+X7NLskWI1QixDyGUCLl9M1ixqlClp4jweczAkWPU8fbbb+vf+++/r5ZIHiN0/ST3IqJtewBEmT59upo7d67aRXj2PfbYQ+29995qviyG7idv6GftVqESfz1I78Lm1MmAZdVUBjTu4oOBJsn7BIuIbGTDI488ou6//37nFN/97LPPqnPOOUcddFDfO3BxhMhvOB+SPG6w7+A8ZCfvJDo6u6JH19JoJJJ6rZOZGiGbAUdnAd2JZyWznazp/IldlHpKrLojB54bmO0ZsGa2T+M1tqvooYceqv7+97+HqgOkWL58uWKWnzR5sta2hbrRKrRk8SI1R3K62kiITPLNb36zT+VqlWUXBL766qtdZ1mUsV3umTY9nN3HdXMGD2ItQ9CuFRUjNAuBtVfrz/sbu/DRPVTFs0co9fLHfJGBgQUluOuuuzTrw23w1jsbGXiuS/6R43vuuUd98MEH+ru4bgMsy+zZs0WonaPtBsuFgjEppAN8p40M3MuCKXb72fWRMt8LqJ57utwymbdMNh4PPC1m41un8U4I1BViuWa2wunPgePcq+Q452UHRLjhhhtUY7/7x4IFC+zLGd//85//rPgx8L///e9rOcR+KZACgZgf2fiqhWJMFLvMeOHtjerWLu/dL5A2Y/DbLBPyThAYqmtfR46xVbT2tWzejz1C0PjFMls1rFmtqmbNCuwLBsCLL76onnvuObVYosqgENkOsEbnn3++Fsg/85nPqP33398l4PL+CLhY7QkbbaluDWUjYHbHEEdqGgMoGD7xiU+of/7zn+aUs/3sZz/r7Jsd7odNjRrEHiHIgwoyGDuCXwcxsK644gqF/j6K8M477yh+aIV+/OMfO3KS+RZm8N1EMMdYt2jhh2rO3HlJa1qbsmxBINggMnzYs/y5556rbRtPP/20ZteQyb797W+rgw8+2L5da9XQrE2IYHqbWCPE2rUNar1YT2eIahMDkxdgJx577DEtsKKJijqg8TrttNPUUUcdpY499tikYKAZM2ZorQ+uGLi2jBLVrx8LRfIBXMZRIky0UuLDQp166qnq5JNP1ho1EMJmq0z7kW4TpIri2hKxFarRcmyQDt1DdOV+yICa9NJLL1VPPfWUVsuazoz6Fm0Q8sV3v/tdrW2yv0cvnCizNvIASNG4Yb192dmHZcIHarVQCb+JAlsKbeqHDKvFr2mLqFtZecimLk7lWb4TS4SgI7fKCp2oDllMxQY0KA8++KC64IILIssi2d8TtI9m6uc//7n6y1/+kqQZGy0uHahKGzds0JTAz6JcLjP8RFHbkuqS9kRITgU8D5Zs/dp1WtUa1XxPsWOZ6lfVaQ/M3cWo5Z2hmO3+67/+Sy0VK2ouAFbru+++WxsN0UbZQNDQdNEmwWYVSA5bv5iJcZKwAbX1iuXLtLZqsiAItg0bmGDIHI5GDiTadff5woZFd56NFULAu+J1iQ7eiwzww7/73e9yBhnsQfvCCy9ol47vfOc7LplghMgApLJkQJPjddQoLPhugD2at8uu4u4u3qzCDnkRghgJPFxnVFWJMD8y0sjAl0cXld39ptAmEf+ANqVCnPpswKeIGRJXi1yFN954Q1177bVJDncIxgzyWvHDYnD7Ae4uY8eKxsm241gFkTkQxL2TkFUkMruxQAhmKMj6NPFOtRN40QtrRVvy29/+1hV4E5neGeIXhT266KKLNPtjV42bODENq1cPLCvY98VxPxYIgavxBDEioTe3AbsCwjNOaHnoawHa4pZbbnE1B6pXDHhE6C0Xt28TQ+IqlCMHkUYIrMm1NSs1VfD67aMVufnmm7WRKEf6MvRnYsS75pprktoGoRmNE1Q1VyHSQjWCHi4CBPF4AV+k11/3D8T3lh2qYwJkcNvec889tcoXQxiGLXyKbP6aAYeQX11drYX8//znP4pYip0JL7/8svbcPf74453H4tBHgM8HImsRAednZ3AKx3QnsggBddggOm+s0CY01PTRX//6V/XSSy+ZwyHfEk9NQM9ee+2lg3vQ6c8SP6mpwod7vUTDPhxXBxAEN5IPP/xQ/0CUd999N2wVaZfDSk+sBd9hACQguGjFsqVqtrh46PgRczEHtpFFCOwNLNjujWrDSc8OYhnKPkQj849//EN98pOfHPJwUvh3ItD4HX300c5rE2RDEM6OAAKaLr/8cnXbbbe5rPnIE7hubGzcMKh4ih3xrjurzkjKEKgHycyHw54NzLI//elPtc7dPj/YfSjPgQceqAOLqINBe8ghh7iQgeiqTqFWLZKPaWtXp9okCNko7hPrJUXLOvmtFQvuGs+Pc1yjDGW5p0nubZU6qMuO2MIxD78kG/bZZx8XC2ZfS3cfmeGPf/yj6zZYvzlC9WhjDG+5BJGkEI0yc+F+4PXDZ/Ymnnl7gQGBSzP8Nfy/F3AMb5PB2ywBMB0ygNMFPcQGCMAvlXcol0Rg5RIO6oWf/OQn2hh2++23DwlriMv7kUceqdk+8yzalvBbKPH0GTPN6dhvIxdCivsF6VEwwDFwDRDJ9sMf/lAHv5tz6W7RskABPvWpT2l5wNyvqYDMlG2Sia+9pzdpFjfldsSWyO8SCfgpJUueuESUWN/M7E7QPxMB1ujtcV+H9fzNb34jBrZtCaFx/VgqtgvjLr7www9c8gbfa/IxzZotOaFiAJFjmVCzkv/HRgb64b777hs0MqCH/8IXvqAtuSeccIILGVoFCRpgcYS12dpPEWyWZkePAZ7VLlRoi6TJ5B1gv0BMgPdGk0Ws8x/+8AdF7PVggXQ93rhtZCbcuDeLJi9XIJkeZ/GXkw2CjHZjPJFvqCyffPLJtN8cpEJGOOaYY7S61FTQJQMQfr6Z/KwDsDbmnp215X02tHeoIqEahqUqFMQAOXBPOfzww9Wf/vQn9dZbb6X9Ss8//7wW6O3JhihD1qWbkCOyRKQQgnyqkHSEWxuY2QYT8skAgkWyAcF4q8zGO5MK2M8Puw/SbumnHKMkQfJwkTWwdWAD4UdU25133jmg27b9PNivv/3tb+qIIyT5Qj+gRkaWMHlyzfm4biPDMsEvo12aJmlgbEDN6hfna5fx7n/0ox9V1113nYMMDH60RGh/YE2yHRm837Opo1NrrWDvDDCoUaliKEwH7r333iRZBMUCC7335ACViAxCoAJktvIavpjRsPqGhc997nPqsssu07y3uadRBPKNMqg6s4w9Mu8XZou2q1FYqQ0iZxiExqZx1VVXpSVboLp+8803XY+EKkOBB0OFXRVF4CASCEFHrG1Yo/Dft4HOe+ihh+xTgfvwxcQDnHHGGY5A3iIzap+Qmr7qNPBBGb7QJrP4WkFwI3jzOqeffnpSyslUr/nvf//bdRlrNdb5XIBIIARpGWGN0HrYQHwDqsGBAHeEX/7yl1qTZMoiK2yUGTXbhGbzftuzRb5A8MbYBxDk87WvfU1961vf0scD/UMg9xrkcA9HcI87ZCVC9MjMjb0BtwVSMjbKAiXEOXh9lsL4+YAM5513nsNLw05gHUZWiDtslm/ECm7WyiN30/e+9z2tSk317dh0nnjiCVcRKKxXmeEqEJODrNIyQQVgjfBg9fKruHd7ZyjSOaYCOpFA+1137VueFsYIlwlm0FyBZnGDRyExWiYUtFBY4Jn98V9KBSQ2/uIXv+hqc28kork/TvETWYEQnTJjr5PwTygCjT5djE1QA2Z34zZttqYTNkjGCFLJpIJTTjnFQQYow0Z5Ti4hg2mbFrRD8u2VtKewPVAKrNoMeu/EY+4hChHPWzKXGPDGU3OeBSHpmw8/eF8HaI2XNe28E5e5PwrbjCMEs1d19QrVLTMZyzbB74YBbA+pUqMcdthhLq9RHOkG43cU5l2iUAakYKCOEqRASD7xxBN1EmfcPoKA7CQ2QngnJe7rS0Kwiw42Yk2IviQPcx3FRVDd2Xo+ozIElGHpksWqTJBgDzEmhUUGkAirahAQqwCvbAA+OpeRwbQD7BPKBAMsdpJKe8SiL2EB+YIJDTaVJGj0URQhowiB/QDKMLOqymGNwjQiOYDIEBcEX//6150ZCmMVAyEPfS2AMgG3FIA4dLRvQUFAA7GkfTVu+8+EhryGUL5hfXjb0LYaMr+XMZYJwY7seswqXlJM6CcGt2qJIDOr8lAGd2cMc3WSyToIQAazFFR7b49WrQaVzdXzaJ9KcfWQBsDLFav2448/ntQc3na+8sor9boU9IWmCJLTCUOnHXFHJQQY1Yh/2YiRlUmG1KSHZNmJjFEI8orSqF42iVQpv/71rxXGISgIxjd+dJyxUgdRB8Ihv/KVrzhN3CQdH03C7XzCDtnB9oJ13sBxxx3nKwgjWNuLoWAHoi84T1w4cdlkQiTnkw2snwcE5Xmyy2bbfsYQYvPGTdppzG4Q8oMyC3mNQpRBLjAQlBWC2coAvklYbfPg3wK4lNNGAL5KZ555pm9BMnQYsDOBm3Nsic22AQpCAFdbW/QyqmcMIVqlsbxJxfDJx6PVD2wnNcp5gWRbBPYAzID4JuUhdQsQ8WcAt3HDappzbO0IRL8s6pRBPesF4ihSaQG95bPlOGMIQQN49dUY5oKArBYGNnoCVqiHlTDRcABm5jPl81v/FkDzZgRsSpA8wQt2YmjDCnnL+K27B5VIRJBfzSxCeFs24BgtCOGdBrxUBGSxWapWa+Yz9+S3/i1gU9KPfUwWoPQAMoQx3gUhhOeWSB9mFCHCthzk1wYs2jbst99+ziFenlF243Y+ZCftMImbOArUsKwjZwP2BIRowNsPdrm47GdM7ZpOA3o7wqhiTR0scG4AlWK6sEXUv88/97xaJ7rzWVWzZM20Q8QloTTdanZ6+V5JePDuu++o10XLU1paog6R98btJV1ok1DZsoI+dhOvWG/AFe1t4qvTrTtq5SOBELaXJXKGLaxp1wHRhwPkNErHVwkV4r333qMee+IxvciK6TxmypNP+ro4t33JkUvMtWzZ4th4443Xqw8ky5+Bu/7nTvVxYXvOOONMSZQwzZwecNuONk5cOoCZkgmRJbdsdatZJ5u2RjYwLNSAFUewQCRYJmN/oH297NK+++7ruIV3iCEuHXjkkYfV/Q/c5yADmqqrfvVrtbeoeK+7/r91apd06ttZZVfJ+nlnnf09FzIc8fkj1QXn/1C99H//p9fYTudd0MrZcSGsf22DUXaADF67kV0uDvuRQAhbG2VTBzrAqFrZ7xQWIizAbjz5lNvn/7BPH64+9rGPi+Pb13U1Tz2VfiaPsM/fnnJPy0KRtq8QaXkuvvgSHQD1GVGf/vv113Ru2HSeYWvmSG1jAws5GvCqys35uGwjgRC4gRsws5U5tgXqdNilOslIx7K8Nrzy6iuSqa5eHAef06cXLV5oX86a/UWL3dkJ8TB94P77xa3iffUPWXwew+Yzzzyd1vu2iBxhwNbomXNma/eFORenbSRkCHs2tDsEC6t93CWkPyz46c5XiY/Uyd840anCS42cCxne6e5Ottfcdsetrrfy+z5XAc8Bkwmtl5BfkAGOW9Ktl3uiBJGgEHYn2CQbnt8GEyppnwvany3rMA/ED0+ZPDXo9oyenxzivfbbd5sqOuzLGmHZ2652m4eJYQ/7vGwsl1UUggS7tj+SaTDbZ99WwdoDmtktPH2Q1SYlV+qhBy9Qz/wtmLU49NAF5hWyakvKyieefNwlR9gviKZoMO8O04Ty1W5X6jXu4bBifv1jPAQoG3XIKoTAo5U0MakAFokOQxVoa5/SoQ6m/u9+93T1r9de8fWfmi8r6RBAsz0AZXtC3Kqffe6vaqVkxZswboJasGCBOv5rxyc5NqbznAMOOFCdc/a56neidrXZSVPH2Wd+XxVLNr90wdRltyt1GLU3A3+g/kn3mdlWPqsQImzjEHcNQpiZK+x93nJjx41V991zv3r8icfVO2+/rZpbmrTn5wEHHKSOPOJIvXaz954wxwwsIvruvOsOVwLmFWLxXfE/y9Xfnv2r+sEFP1T77LNvmOp8yxwrLttTp02VzN8vqLr61apYDGus6fD5z31er9Pte1PIk6hXbQhKLmCXict+ViEEeZZYXN0LzEwsoGhAp1YUj1db6EUYHAxUCJt24okn6d9g7ve7580331C/uOJnfpf0OQJvzr/gPPXwHx+RFXomBJYb6MKBBx4kyZoPGqhY6OtGvW0oBTdCjQ1CvC2Tht0PpmKo9o033mgOI73NKoRA3x2UlhIXY2MwQguCF6axoNIDZJPIFvjXv/4V6lUWSzz59iBEqIcMohA5sQywfp4BDIJ+/WNr+kzZqG7dtDGLv8LOwYRrBWCczsxrZwtSeFc2Mu9nb9Hc7LnntsUO7WuZ2jftZ7erHR7qF4eSqXfdUc/NGEJAnrtF922DV7thX7Mjt4zhiNxMNvS5p8kZ4eETJBbgl4Ztwq5re/bxgdp/vwMCqyDy7KYbb3at1hNYeAdcSOC7ROyJ1f7QV9aZAEjiYID17Aw0NDSYXdfWCN32STKFGxbMPp/t+xlDiGGSiMxrdYYlsnXeduOxRK0JLTWuBTjn2Z3EIiKJrRJxV1stvxUqwW/lMunh5Ag7u+6h3idu4Le/vUa8Tw/2rfriiy6R6LT00tT7VpTmyURbi0qsqlGqZrlK1FX3tc2aeo0crGlnwIToouK2WSZv0gFT3i/Srln6prA4qzhy87optxlDiDFjxiaxPKj7Lr/88qSldvkCkMF0yHRZI8Lovm1X5SJx41br16pEf6yw/nKoxWZZEgrkaG1O2RhDffHiiy9V/+9bp8rikH3rtu25x17qlt/fqvYdhNFse96tV2JEEtIuisHf0e6qijZJ1NeocouSsnAKUFVVpbf8wwXc6+rCeeQ5O7ED51B2kI60rMy9sA3Xsh0yhxDSkAhvtmBMY+0m+v9f/epX6qCDDkpSq5rEWfDoeLkCrKBpoEQ0IkEAC9W7Tki+1fFBZYfqPDPsKad8S5191lm6yiuv/JV83/yhqj50PYlNMiFAOQO+HUapTCYjAyZG2p75X3nlFRdFhx0iT+wtt9zipAs195MmE6u3d/kCcz2btxmlaeOESrDKJQ1PjlADzDoXX3yx7oAgT0sS8ZKqBr99tB9TJV17icxICWGbgpLvat553RrVO2GyedRO2RotjFe/v1MeLgMzIWvzpYKS8m0RiUxSBiHsxA4sPfbxj3/cqQZq7mcHor/WiqwxTTxm/a47FWTpTsYoBO0xToRLBkm1JLXyAwYSs6z5mYFFWdZRM2lRjMBdIHzwCLEGp4Tmpj6BO2Wh+FzUyCAsUyooq9i27gYJ4pDNADtOHdnO9ANbv8EOMnwogUusSTd69JhUj8zaaxlFCMju7LnzdONilGsUrZFtFBqo1VgrDiDTn4HyMePEwjyA24KV39TcN9jt7bffol59NZzdYaBnoCC4+aabQi0CM1Bd5nrvALmRoKjDRvQhBHICK5gCLFPspz0y9dpbZAZUslD7kZWj1KTJU+zLkdrPKELQUgjHM2ZWiXA2TrG8Li4UDRKn4NVA+bXqAQf0qTZZ8cboyKE4ZdIpOw16E+rGm8VKG8Cfu95jgDL33XevevzJx3xnX1c9aR2kdnmsnDBJFQglBlhbDm9WqAFLCQwE+GqRRfEDmcxIXTl+wkS9KKYf9Riormy5nlEZwm6EseLYhxvFVumQreLzs16ohXFHphx6bbRLY0S+MEByAWQHZIirr75aXXHFFbozhwu5bhFdek+vP6vQIwOgT+Nuahr89tRvf0ctEav5eeefoy666Ec6HtmuDSR/9NFH1XDxv7r+d9ers848S43qT/VoyjEz33//fer1N19XN95wU+iZ2dyfaptAPmjx164Vi8wFRTVgMqoz0djsKVR78aJFql1YImNboP0KxX+qRJIxTJg4SdtUivoRy9QXxW3GKYTdaAhq42Rxv5lVs9Quu+6mdpu/u/MDYbwJyijPWtMArhyvvvqq3i8sKVVjZszU+95/veUVKiGJfocKoHA/uuRSVVuDf9L56r333tVV90gEGoP8lG99UzsM/umRP6vFSxapr3ztOPU4qR/7qcUamWEvvPACdd/996oLL7hQ3FPmDNWr6Xp6YYeEavqBLW9BHfBVAnAvtwHLNUhbJf1i+mRX6Zu5kulbU3fpmzggA9+c6OjsSk1T7ZbJ4D52CNaSYAEP71pzLJsF28Q10rsb497m1XWqWdanM9ArskViynTVK4N4qIFB88ADD6i//+N5GTz4AvWoWVVV6tBDPq3Vk1CIxsYNekF1bCe1dTVaoVBUVKIOlBn5hBNOkKWC/ZF4u9914waV2LStHagPZBgh7BKApu6SSy7RdiHS2f/sZz9z2pDrsEPtbe1qphhODYXgfBwhMghB468R1mhr01a1u5WHifNQBjKGA8xu5557rt5n8cZ1yxarbtwUhNfvFfZKlZbpa7n1T4yTsmSZaupTvw6TNPVjpm1DvptEkMeeA5t0xx13iCFxhNM8sK3vvfuuptiFkkEx7uBPS7P0qyvHjNaGPAw/NpBowKRhZImoZ599Vl8uEB53/Kx5qlhmw94ZVTmKDDSFTAbjJ6pe4fVLRo1RIydus8M888wzElPxD91erBNhIwOywwrxMq4QtisXkIFGiBRC4AqAu/Q6WZvABrQaF154oePyceeddzpuygVybYwMhkQMBD77mwezX1JRqcZNmSb8fom+HXX1rbfeql0tkIWOPfZYV7UsiUweXeS3XIFIIQSdMnHSZNUl6SrXy2IqNsDbnnzyyfoU7iAgiHEZx4tzkgjgwwKES7ueuO6XyYAfI+pUA4sXL9bsEcfYG5AbCLyyAbvIBFlV1Cuz2WXith85hGDgj50wXi/J29pvUTWdsmDBAnWYrD4KoE+/5pprHCMXvv5jBSnKc4APNu1htiPF6xRkMO7drPmAEG28Wo8++mi1++67m+J6i30BRcZESWsZd0Ha/vDIIQQvXymGt5GVla78o+ajWH3UJC9DTXv22WcrO4JttLBOoyUA3wwOc18ctyVCEcdIEuQR/ZZ7BGQ0XEwUBrA54BdmA5PJatE8YV/INYiUlsnbOUsWLpSlm0aryTKL2QAinCUepsaTFus12SJYsNwGFnLXi5rbJ2OyP1woIWtS2/CXv/xF3X333c4p1uRDTe0F/JFQE0+ekp15qbzvO5THkUYIrNrVK5arqlmzlDe5FvzvVVddpd1BTIPhsckqpXaeJ9aTaJEFVlqFPYg6JOQDygQRhssEUGLZWohvePjhhxUu3HaQ1Q9+8ANt/TffzbWVsvIr25mSyC2XWCXTBpFGCD6CQJR6ydPKwu9eHxpcOs4//3x3dg6RJS666CIdb2EagS15nRqFYrAYYRRhmCAAFMHLChJpeO211zrLG/NtRBxyzuuOTnvhur2LxGwY42YU22J73jnyCMHHr1ldr0j4Swhqubgm24DgeP3117uyYYM4+++/v16f2XZx5j7WmGiRX4fMkqzBls2AjDCsUH5ibymWfQPM8O+KMe3JJ590eQJzHbd52EfWgDCAvQFVNhk1poujZS5plUwbmG0sEIIOraleoZ3P0JZ4ST1BLz/96U/VsmXLzHc7W1zIGSAmk4dzQXZIALxVBlcr0Xb2hQzvIx+MlJ/JkmG/Di4kzP64sngBlvG8887zntbIAFsFm8RKQbkMsUAIOhCkqKurVahiq8SHiCAWG/DZf+SRR7TnqeGjzXX08GSXICKM0FRv9g/oRBcUQxZkYQ0KsoxDSXY0kjDgi/jJ7F8sAkJJwi0bmPdnERkc85ARiCK0E7hRhkF+zDHHaIpoz/5onbDnQBkmyqKWaO9yHWKDEHQkSLF82VLVKbLAXtZC73YnwydffvnlypvCxpTBYkvQ/HGSKnIgPhoK0i5I0iGerR3y7HTWpzDPs7cM/FIGf0FCs0FeecAuyz5W5Mcld+xTsoCKiXLzlgHZf/GLX6hZonjwAooHlgCYLsmRR40a7b2ck8exQoi1DWs0+Z8hHezVOtm9y4zIQHrhhReSMn+YcsgZeH6S9ICYb+QTYr297Jgpb7YI5/ygHt39NMShJHJeKhDPIvGZYVe21Acl8GN/TJ1my3uTaAErM8Y1XN7tpQJMObZQAgxuX/7ylwNlAoKw6mWCwLV7qsSalFux1XZdubQfC4SAMqwSdgk17G6iW/fO7Fy/9957dVgkg9oA1ALVLNswgCCKE+GBBx6o7AD8MPcOpgysD3IPhkV+zOhhgGx7l156qSs7OoMejZO9BJmpCypB3VWz57ic+8z1XNrGAiHqamskKKxZAouqnMS8phOZQUmVgkcn9gdmzU9/+tNOOfho3MehFiQrsLN8mDr8trhKk+SAFP5QI/yA8BTlB5vCDA1i8kO9aSgLyIkMw3P4IfDD7iAMYyHGkxd2jh8UIez78AxS9+C6gubMRLxRN9QQoxx1ff7zn5fEzic638+30QY8C3ki12WJyCPEJgkAQneOHcILDDLS2eCXY8O0adP0DDppkts1gXDP2267zaWite/L1n1UyLioeDVE7733nrryyisdi715f5QHOD96AaSoralRu2KHEL+vXITIIwTuG2PGjpFMD9t8/OlIWADsDwvluh8wY8M+MKMSm20b9chLZEIqP5R1oJlBswnQgiHbQAnw2wLBDQXiPXHrJuDnDVnQ3atxMt/BvaeffroyeXI5r+0XQiWnTJ0mLjHRTCNjvm+w28iHQHV1d8nyWMkhobAHJtOfX+PAurz00kv6h0/POeec4+R5QoDm99WvflULrU888YR6TOKg0epkEhi8Rx11lFogXr2wZV4AeW+44QbflJPesrCHqGtthEDDBmJl2wTgffcdeRx5CkHKmlbJKjFXNEH2LEmjMeAZIEGzpLdhEUbx/sRYx6zrBYRvqAdGLPLMkusUS3iQytN7f9hjFihBPoGlI9MIPxAUGch2t2Dg1giLAyXgt0TyInltLH7PRO5hAsBqbQPyy3IR4udIImY/hLPLxnU/8ghBxyyVdZsRXllSyguoKLFShxVOzf1okQj8t9PBm2veLbw3iAJFImAfmQWPW4TkIGSERasUF3a0XszSaLCwFZAogezhqYA6YYseeughVS3OeOkCdgnYRBugmO+LzDFKUvhM9MhWdrm478cCIbBOr5TBiCwx1Wdmx3r7+9//Xmtw0u1QtEcgBwOVAYtjHDOsPVOnqhNEZLAxiKFgIAL32jJLqvu5BoJBCUA61LDYH0C2dIF3P/PMM5NUxrjJQxlIQTlt+ox0q41V+VggBD3CgFu88EPNVkwhu4YHTFhpWJuD53bXITM7bBU/hFuTY9ZVaDsOoDKEv2I3wCcJ1ez2AkhMZhI/6rOwX3EAqxQW0bf3fbL1/tggBA2MkFhXs1IHxZPRzwvw+8QFvPjii6FSZXrvDzpG6wMl4Qf/jx8VdggSqfEzlAGen59th0D+wGjGuyO0w2qly94FvRfneTa2F5YY9vpoMUlUC2Utloi6aWLdz3Vk0O0VlURlqTrdvgalWLJooY74QhD1CtqUxUiHSjbugJHwRz/6kaZi3m8FMYmMIx3lLJG98sjQ10KxohCm05Ep8HwtFUF7uvDNXlcOysE6kXMV5IDHjxOgITpYlvP60pe+5FKrmm8kdgSZZIQkLIO99Js0TNlc28YSIUwnrhQhlEx/u4iTntcd3JRBfYo112+5KFMmSltUs5dddpkW/v3em0AgvpmU9eTRzYO7BWKNEPDq+OdskiWlUG8yWPy0O7h44DyHPxPGragB34QNBR8t3DIwsHkBny48W/lWqALrOOQhuQVijRDmc3H8I04CoRJq4TdgTFmMW6hoB6PfN3XszC1yEqpUtkGAoN6XknKEqsrR5AFBbeM9nxMIwUcjbOMEiDMgqRlRlRqPUG+jECeAQc/4M+H0F8YC7K1nRxzD7xOfgcGQXyo3dKgB34zaduy48do/KS88p+6VnEEI0wxdMthXLF+mPUARuGGjBgLkC1yoEcBRkWYCoG74MREKimo3FYD8yAksUTZKWKMp4vqRiiqmqivXruUcQtDBzPabN29SG2XAoGFCvsC7M4himEEBH85Aw2LMFp8mrMiNslpRmCXATD2ptrwDSIo7B7YUrMuwQ2wHmt1hDWGP8EkqG1amRst3sSpTHsK3QE4ihN08qCDr61dJAuVO7cODT1G6akiQATUmbhVsUemy5h2DM8jxj1keqzHIiPMeAx73kCoJckoX2sXAVisISrZuKAnuF7hh5CH9Fsh5hKDJoBiEn0I1mGWZVQm2GSGD1l4/O/3m7bvDWJ6hRiAbVCBdpLOfjVENuQDrNkgAQpJ6kqwZeYpgt1T6+3mE8LQZgxaX8vWy4g772C8miADu5wPkuXWHHzLwNwp7hgsKSIbBEc/USsmYsT0ItsNfPEIPyCNEQGcxCzc3y2KDTc3C9jTLGmttmh3BR2mY/MqENSHM0s8KHlBl6NM8mwGPzNImlKBVno31HUrGs8mOAcvFfh4RQjdrqIJ5hAjVTH2FYKsQWLdu2eyoYRF0GZwmsQC8OyxRWK0OGiEGPgMeNqiZrfygTkBpSamOm2A5sWEiKOdhx7ZAHiEG0b4MVmZwfp0d7bLtFDtHpyzu2KXtHV2SUVxGtKtmZnIzyM0FSoBQIA/W5iLxOi2WxU2KhRWC8pQIMgyk+TJ15bdD0wJ5hBiadszXEpMW+P9lwJbHTCR9PgAAAABJRU5ErkJggg==;" vertex="1" parent="1">
          <mxGeometry x="250" y="240" width="196" height="198" as="geometry" />
        </mxCell>
        <UserObject label="https://avatars.githubusercontent.com/u/66706786?s=200&amp;v=4" link="https://avatars.githubusercontent.com/u/66706786?s=200&amp;v=4" id="x3Lsv5-kPZrnv_pdy9i5-8">
          <mxCell style="text;whiteSpace=wrap;" vertex="1" parent="1">
            <mxGeometry x="350" y="160" width="370" height="40" as="geometry" />
          </mxCell>
        </UserObject>
      </root>
    </mxGraphModel>
  </diagram>
</mxfile>
